<?xml version="1.0" standalone="no"?>
<!DOCTYPE svg PUBLIC "-//W3C//DTD SVG 20010904//EN"
 "http://www.w3.org/TR/2001/REC-SVG-20010904/DTD/svg10.dtd">
<svg version="1.0" xmlns="http://www.w3.org/2000/svg"
 width="700.000000pt" height="700.000000pt" viewBox="0 0 700.000000 700.000000"
 preserveAspectRatio="xMidYMid meet">
<metadata>
Created by potrace 1.14, written by Peter Selinger 2001-2017
</metadata>
<g transform="translate(0.000000,700.000000) scale(0.100000,-0.100000)"
fill="#000000" stroke="none">
<path d="M374 6958 c4 -24 8 -59 11 -78 3 -19 7 -46 10 -60 3 -14 10 -52 16
-85 71 -398 274 -866 533 -1225 181 -252 479 -552 701 -706 17 -11 54 -37 83
-58 110 -76 216 -138 372 -216 337 -169 685 -270 1085 -315 94 -11 502 -14
585 -4 149 17 176 20 265 35 336 56 679 176 988 346 83 46 269 163 300 188 7
5 46 35 87 66 142 107 330 282 461 429 229 258 449 623 571 950 96 255 143
443 183 728 l7 47 -1125 0 -1125 0 -46 -85 c-99 -187 -233 -318 -425 -415 -52
-26 -156 -64 -168 -62 -2 0 -17 -3 -34 -8 -100 -29 -285 -31 -399 -4 -104 24
-165 46 -248 90 -177 93 -303 219 -398 399 l-46 85 -1125 0 -1125 0 6 -42z"/>
<path d="M0 4166 l0 -736 35 -1 c19 -1 38 -2 43 -3 4 -1 25 -5 47 -10 171 -33
324 -142 416 -297 40 -67 51 -93 73 -186 50 -201 -26 -447 -183 -591 -109
-101 -257 -165 -393 -170 l-38 -2 0 -736 0 -736 108 6 c59 4 119 8 132 11 14
2 46 6 71 9 25 3 88 14 140 26 649 141 1204 595 1471 1205 49 111 111 297 125
375 2 14 8 44 13 67 6 23 12 61 15 85 3 24 9 75 14 113 9 71 7 410 -3 454 -3
12 -8 43 -10 66 -9 74 -53 256 -86 354 -30 89 -94 245 -110 266 -4 6 -26 46
-50 90 -38 71 -134 222 -149 235 -3 3 -24 28 -46 55 -189 238 -445 442 -720
575 -246 119 -530 191 -803 206 l-112 6 0 -736z"/>
<path d="M5768 4375 c-2 -2 -61 -5 -133 -9 -71 -3 -143 -8 -160 -10 -16 -3
-55 -7 -85 -11 -46 -5 -157 -22 -260 -41 -120 -21 -347 -83 -495 -135 -860
-299 -1582 -896 -2037 -1684 -59 -102 -192 -380 -235 -490 -93 -238 -173 -522
-207 -730 -18 -108 -37 -253 -43 -330 -16 -180 -8 -616 13 -769 2 -17 6 -49 9
-71 3 -22 8 -52 11 -68 l6 -27 1169 0 1170 0 -14 28 c-42 82 -101 308 -112
427 -6 60 -6 252 0 315 15 159 78 369 156 524 37 72 125 212 153 242 6 7 33
38 61 70 180 213 428 366 750 464 188 57 522 57 751 1 239 -60 488 -200 675
-382 l89 -86 -2 1300 -3 1300 -118 33 c-102 29 -278 69 -342 79 -11 2 -54 9
-95 15 -41 6 -88 14 -105 16 -87 14 -557 38 -567 29z"/>
</g>
</svg>
