<?xml version="1.0" encoding="iso-8859-1"?>
<!-- Generator: Adobe Illustrator 19.0.0, SVG Export Plug-In . SVG Version: 6.00 Build 0)  -->
<svg version="1.1" id="Layer_1" xmlns="http://www.w3.org/2000/svg" xmlns:xlink="http://www.w3.org/1999/xlink" x="0px" y="0px"
	 viewBox="0 0 496 496" style="enable-background:new 0 0 496 496;" xml:space="preserve" fill="#7780A1" width="50px" height="50px">
<g>
	<g>
		<g>
			<path d="M248,48C137.72,48,48,137.72,48,248s89.72,200,200,200s200-89.72,200-200S358.28,48,248,48z M248,64
				c76.896,0,142.896,47.44,170.352,114.568L391.208,184H384H112h-7.208l-27.152-5.432C105.104,111.44,171.104,64,248,64z
				 M384,199.992v44.696c0,5.16-2.008,10-5.664,13.656c-3.64,3.648-8.488,5.656-13.648,5.656h-65.376
				C288.664,264,280,255.336,280,244.688v-44.752L384,199.992z M216,199.904v44.784c0,10.648-8.664,19.312-19.312,19.312h-65.376
				c-5.16,0-10.008-2.008-13.656-5.656c-3.648-3.656-5.656-8.504-5.656-13.656v-44.84L216,199.904z M248,432
				c-101.456,0-184-82.536-184-184c0-18.864,2.864-37.064,8.16-54.208L96,198.56v46.128c0,9.424,3.672,18.296,10.336,24.968
				S121.872,280,131.312,280h65.376C216.16,280,232,264.16,232,244.688v-44.776l32,0.016v44.76C264,264.16,279.84,280,299.312,280
				h65.376c9.44,0,18.304-3.672,24.976-10.344c6.672-6.672,10.336-15.544,10.336-24.968V198.56l23.84-4.768
				C429.136,210.936,432,229.136,432,248C432,349.464,349.456,432,248,432z"/>
			<rect x="240" width="16" height="32"/>
			<rect x="143.219" y="25.668" transform="matrix(0.3827 0.9239 -0.9239 0.3827 129.3928 -126.3159)" width="32.001" height="16"/>
			<rect x="67.951" y="75.952" transform="matrix(0.7071 0.7071 -0.7071 0.7071 83.9516 -34.773)" width="32" height="16"/>
			<rect x="17.635" y="151.212" transform="matrix(0.9239 0.3827 -0.3827 0.9239 63.4894 -0.7523)" width="32.001" height="16"/>
			<rect y="240" width="32" height="16"/>
			
				<rect x="25.679" y="320.786" transform="matrix(-0.3828 -0.9238 0.9238 -0.3828 -264.5599 496.8237)" width="16" height="31.999"/>
			<rect x="75.97" y="396.067" transform="matrix(-0.7071 -0.7071 0.7071 -0.7071 -148.0302 762.8185)" width="16" height="32"/>
			
				<rect x="151.227" y="446.371" transform="matrix(-0.9238 -0.3828 0.3828 -0.9238 129.3238 950.4744)" width="16" height="31.999"/>
			<rect x="240" y="464" width="16" height="32"/>
			<rect x="320.783" y="454.335" transform="matrix(-0.3826 -0.9239 0.9239 -0.3826 38.4816 950.3849)" width="32" height="16"/>
			<rect x="396.085" y="403.996" transform="matrix(-0.7072 -0.707 0.707 -0.7072 412.2307 994.7093)" width="32" height="16"/>
			
				<rect x="446.339" y="328.797" transform="matrix(-0.9238 -0.3828 0.3828 -0.9238 760.5305 824.9275)" width="31.999" height="16"/>
			<rect x="464" y="240" width="32" height="16"/>
			<rect x="454.33" y="143.227" transform="matrix(0.3828 0.9238 -0.9238 0.3828 432.4425 -328.84)" width="16" height="31.999"/>
			<rect x="404.066" y="67.933" transform="matrix(0.7071 0.7071 -0.7071 0.7071 180.0406 -266.7912)" width="16" height="32"/>
			<rect x="328.791" y="17.663" transform="matrix(0.9238 0.3828 -0.3828 0.9238 38.541 -126.3631)" width="16" height="31.999"/>
			<path d="M339.2,318.4l10.088,7.56C325.104,357.472,288.112,376,248,376s-77.104-18.528-101.28-50.04l10.08-7.56l-9.6-12.8l-32,24
				l9.6,12.8l9.12-6.84C161.112,371.104,202.792,392,248,392s86.888-20.896,114.08-56.44l9.12,6.84l9.6-12.8l-32-24L339.2,318.4z"/>
		</g>
	</g>
</g>
<g>
</g>
<g>
</g>
<g>
</g>
<g>
</g>
<g>
</g>
<g>
</g>
<g>
</g>
<g>
</g>
<g>
</g>
<g>
</g>
<g>
</g>
<g>
</g>
<g>
</g>
<g>
</g>
<g>
</g>
</svg>
