<svg width="447" height="863" viewBox="0 0 447 863" fill="none" xmlns="http://www.w3.org/2000/svg">
<path d="M0 21H427C438.046 21 447 29.9543 447 41V843C447 854.046 438.046 863 427 863H20C8.95429 863 0 854.046 0 843V21Z" fill="#060714"/>
<path d="M0 21H427C438.046 21 447 29.9543 447 41V843C447 854.046 438.046 863 427 863H20C8.95429 863 0 854.046 0 843V21Z" fill="url(#paint0_linear_12712_987)" fill-opacity="0.1"/>
<path d="M0 10C0 4.47715 4.47715 0 10 0H156.429C161.902 0 167.136 2.2433 170.911 6.2069L185 21H0V10Z" fill="#1C1D29"/>
<path d="M23.5 16.5C23.5 18.9853 21.4853 21 19 21C16.5147 21 14.5 18.9853 14.5 16.5C14.5 14.0147 16.5147 12 19 12C21.4853 12 23.5 14.0147 23.5 16.5Z" fill="#7780A1"/>
<path d="M40.5 16.5C40.5 18.9853 38.4853 21 36 21C33.5147 21 31.5 18.9853 31.5 16.5C31.5 14.0147 33.5147 12 36 12C38.4853 12 40.5 14.0147 40.5 16.5Z" fill="#7780A1"/>
<path d="M57.5 16.5C57.5 18.9853 55.4853 21 53 21C50.5147 21 48.5 18.9853 48.5 16.5C48.5 14.0147 50.5147 12 53 12C55.4853 12 57.5 14.0147 57.5 16.5Z" fill="#7780A1"/>
<defs>
<linearGradient id="paint0_linear_12712_987" x1="447" y1="0" x2="211.5" y2="859.713" gradientUnits="userSpaceOnUse">
<stop stop-color="white"/>
<stop offset="1" stop-color="white" stop-opacity="0"/>
</linearGradient>
</defs>
</svg>
